<svg xmlns="http://www.w3.org/2000/svg" xmlns:xlink="http://www.w3.org/1999/xlink" width="500" height="500" viewBox="0 0 500 500">
  <defs>
    <clipPath id="clip-ic-clean1-web_">
      <rect width="500" height="500"/>
    </clipPath>
  </defs>
  <g id="ic-clean1-web_" data-name="ic-clean1-web " clip-path="url(#clip-ic-clean1-web_)">
    <rect width="500" height="500" fill="rgba(255,255,255,0)"/>
    <g id="icon_web-15" data-name="icon web-15" transform="translate(-20.245)">
      <path id="Path_42" data-name="Path 42" d="M786.812,210.389c-.616-1.233-2.164-1.853-3.4-2.164-7.112.019-68.34-2.474-68.34-73.595a4.022,4.022,0,0,0-8.039,0c0,71.12-61.223,73.613-68.025,73.613a3.513,3.513,0,0,0-2.474.927c-.616.306-.927.927-1.237,1.233a4.605,4.605,0,0,0,0,4.022A4.291,4.291,0,0,0,639,216.588h.311c7.112,0,68.025,2.474,68.025,73.595a4.022,4.022,0,0,0,8.044,0c0-70.819,60.917-73.6,68.03-73.6a4.7,4.7,0,0,0,3.707-2.164,3.8,3.8,0,0,0-.306-4.031Z" transform="translate(-320.155 -70.163)" fill="#c1cce8"/>
      <path id="Path_43" data-name="Path 43" d="M436.439,352.048c-9.026-8.489-19.391-12.617-28.5-14.869,1.705-7.316,3.188-15.115,4.356-23.372a121.863,121.863,0,0,0-1.562-43.06l-9.527-44.593a11.737,11.737,0,0,1-21.745-6.149c0-64.017-54.125-65.866-60.3-65.866h-.31a12.047,12.047,0,0,1-10.625-6.436,12.256,12.256,0,0,1,0-10.931l.561-1.131.63-.626a10.574,10.574,0,0,1,2.368-2.27,11.376,11.376,0,0,1,7.066-2.414c3.874,0,26.638-.732,43.055-17.107-1.1-.927-2.219-1.853-3.369-2.715.463-.607,1.107-1.084,1.566-1.733a38.5,38.5,0,0,0,5.231-33.13L357.5,28.728a19.926,19.926,0,0,0-1-3.795A38.25,38.25,0,0,0,320.781,0H172.7c-15.847,0-30.192,10.008-36.3,26.791L124.049,73.4a38.486,38.486,0,0,0,4.485,35.363,36.248,36.248,0,0,0,3.855,4.3c-10.8,8.966-19.433,20.476-23.687,35.613L82.663,270.748A122.789,122.789,0,0,0,81.1,313.84q1.784,12.381,4.379,23.349c-9.091,2.275-19.433,6.4-28.441,14.869C48.444,360.1,38.227,374.943,38.25,400.8c1.687,34.464,27.834,99.621,114.657,99.621H340.566c86.824,0,112.971-65.139,114.681-100.6C455.247,374.943,445.03,360.1,436.439,352.048ZM132.056,456.72h0c-47.54-9.781-51.794-52.526-52.128-56.9,0-11.945,4.17-15.949,5.56-17.265,2.984-2.854,7.173-4.481,10.991-5.338a83.122,83.122,0,0,0,19.642,21.977c.292.273.6.463.876.732,1.585,1.5,3.211,2.813,4.856,4.128a55.174,55.174,0,0,0,5.129,3.563c1.751,1.1,3.318,2.252,5.1,3.151ZM175.487,41.7H317.4l6.95,41.7h-63.8c-3.188-.065-5.857-.042-7.984,0h-88.1ZM319.72,458.722H173.763v-45.83c1.816-.607,3.86-1.251,6.237-1.941l1.6-.463c2.192-.625,4.61-1.293,7.173-1.937.927-.25,1.9-.5,2.9-.732q4.314-1.061,9.193-2.062c.607-.125,1.168-.273,1.793-.4,3.818-.751,7.877-1.436,12.047-2.062,1.126-.167,2.275-.315,3.424-.463,3.294-.44,6.709-.811,10.194-1.126,1.353-.125,2.687-.25,4.045-.334,4.689-.334,9.466-.584,14.364-.584s9.591.25,14.239.584c1.39.083,2.711.208,4.068.334q5.194.463,10.134,1.126c1.145.144,2.317.292,3.42.463,4.17.625,8.257,1.311,12.047,2.085.584.1,1.107.227,1.668.352,3.276.667,6.4,1.39,9.323,2.085l2.961.751c2.5.626,4.856,1.274,7.006,1.877.584.19,1.27.357,1.853.524,2.4.709,4.481,1.39,6.3,1.96Zm16.217-168.736a2.358,2.358,0,0,1-4.717,0c0-41.744-35.757-43.2-39.932-43.2h-.181a2.511,2.511,0,0,1-2.178-1.27,2.7,2.7,0,0,1,0-2.359c.181-.181.361-.547.727-.728a2.057,2.057,0,0,1,1.45-.542c3.994,0,39.932-1.455,39.932-43.2a2.358,2.358,0,1,1,4.717,0c0,41.744,35.938,43.2,40.113,43.2a2.982,2.982,0,0,1,2,1.27,2.238,2.238,0,0,1,.181,2.359,2.78,2.78,0,0,1-2.178,1.27c-4.189,0-39.946,1.636-39.946,43.2ZM361.422,456.72V410.742c1.775-.894,3.42-2.1,5.1-3.169s3.243-2.168,4.837-3.378c1.687-1.334,3.378-2.646,4.981-4.17.167-.148.357-.273.524-.417A81.972,81.972,0,0,0,397,377.232c3.67.834,7.817,2.358,10.884,5.236,1.39,1.311,5.648,5.315,5.69,16.18-.366,5.426-4.62,48.272-52.16,58.072Z" transform="translate(-0.002)" fill="#c1cce8"/>
      <path id="Path_44" data-name="Path 44" d="M937.5,415.457a2.982,2.982,0,0,0-2-1.27c-4.17,0-40.113-1.45-40.113-43.2a2.358,2.358,0,1,0-4.717,0c0,41.748-35.938,43.2-39.932,43.2a2.058,2.058,0,0,0-1.45.542c-.366.185-.547.547-.727.728a2.7,2.7,0,0,0,0,2.358,2.512,2.512,0,0,0,2.178,1.27h.194c4.17,0,39.932,1.455,39.932,43.2a2.358,2.358,0,1,0,4.717,0c0-41.563,35.757-43.2,39.932-43.2a2.78,2.78,0,0,0,2.178-1.27A2.238,2.238,0,0,0,937.5,415.457Z" transform="translate(-434.709 -197.823)" fill="#c1cce8"/>
      <path id="Path_45" data-name="Path 45" d="M346.263,660.839c.955-.032,1.9-.065,2.84-.116l1.58-.093c.853-.056,1.7-.111,2.539-.176l1.617-.134c.816-.074,1.626-.153,2.428-.236l1.575-.176c.811-.093,1.612-.195,2.409-.3l1.473-.2c.843-.12,1.673-.255,2.5-.389.426-.07.853-.134,1.274-.208.982-.171,1.955-.357,2.924-.547l.746-.144q1.853-.375,3.665-.8l.195-.046q1.673-.4,3.308-.829l.9-.25c.848-.232,1.691-.463,2.525-.718.352-.1.7-.213,1.043-.32.774-.241,1.543-.463,2.317-.737l1.061-.357q1.121-.385,2.224-.788l1-.371q1.14-.431,2.252-.88l.862-.348c.829-.338,1.645-.69,2.451-1.047l.565-.246q3.063-1.39,5.945-2.9h0q1.219-13.956,1.223-28.237,0-12.974-1.015-25.707-.677.894-1.39,1.779l-.19.236c-.463.584-.973,1.168-1.483,1.742l-.083.093c-.5.565-1.024,1.126-1.557,1.682l-.144.153c-.537.556-1.1,1.1-1.668,1.65l-.264.246c-.588.556-1.186,1.1-1.807,1.636h0q-.927.792-1.9,1.566c-.1.079-.195.158-.3.232-.639.5-1.293,1-1.965,1.478l-.334.232c-.681.463-1.39.959-2.094,1.427l-.056.037q-1.084.7-2.233,1.39l-.431.25q-1.131.653-2.317,1.27l-.352.181q-1.126.579-2.317,1.126l-.315.148c-.834.38-1.691.746-2.562,1.1l-.547.222q-1.325.528-2.715,1.024l-.273.093c-.88.306-1.779.593-2.692.876l-.514.157q-1.446.431-2.947.811c-.2.056-.412.1-.616.153-1.043.26-2.1.51-3.193.732h0v-46c1.775-.894,3.42-2.1,5.1-3.169,1.233-.8,2.442-1.636,3.637-2.5.4-.292.8-.57,1.2-.876,1.687-1.334,3.378-2.646,4.981-4.17.167-.148.357-.273.524-.417.853-.635,1.691-1.3,2.525-1.983l.778-.658q.871-.728,1.719-1.5c.287-.255.57-.51.848-.769.6-.556,1.191-1.131,1.779-1.714.209-.2.422-.4.626-.612.746-.755,1.483-1.538,2.206-2.317.287-.315.57-.644.853-.964.463-.528.927-1.061,1.39-1.608.315-.375.63-.76.927-1.144q.653-.815,1.293-1.65c.292-.375.584-.746.866-1.126l.111-.158a320.3,320.3,0,0,0-52.934-114.3c-2.433,5.5-3.943,12.348-3.943,20.883a2.358,2.358,0,1,1-4.717,0c0-41.744-35.757-43.2-39.932-43.2h-.181a2.511,2.511,0,0,1-2.178-1.27,2.7,2.7,0,0,1,0-2.358c.181-.181.361-.547.727-.727a2.057,2.057,0,0,1,1.45-.542,45.564,45.564,0,0,0,21.134-5.76A320.894,320.894,0,0,0,112.4,299.12h0q-1.061,2.363-1.988,4.856c-.065.167-.116.338-.176.5-.246.676-.463,1.348-.709,2.039-.283.88-.556,1.77-.811,2.674L97.135,363.448,82.66,431.269q-1.154,5.366-1.826,10.754-.167,1.348-.306,2.7a122.68,122.68,0,0,0-.635,13.484c0,.973.028,1.946.06,2.919q.079,2.414.25,4.823.3,4.212.89,8.405.222,1.543.463,3.072.542,3.526,1.158,6.918,1.242,6.923,2.78,13.359h0c-1.617.408-3.276.871-4.953,1.39a60.581,60.581,0,0,0-23.487,13.437,54.084,54.084,0,0,0-4.124,4.314,56.023,56.023,0,0,0-4.068,5.379q-1.186,1.789-2.317,3.795t-2.136,4.263c-.463.992-.89,2.025-1.307,3.086s-.816,2.168-1.186,3.3-.727,2.317-1.056,3.526c-.162.6-.32,1.219-.463,1.853a82.2,82.2,0,0,0-2.15,19.276c.083,1.742.236,3.568.463,5.458.1.867.213,1.742.338,2.636.051.357.107.714.162,1.075.116.751.241,1.506.38,2.275.116.644.236,1.293.366,1.951.107.542.222,1.089.338,1.64.6,2.78,1.339,5.69,2.229,8.632.046.162.1.32.144.463q.5,1.613,1.052,3.244c.8,2.358,1.7,4.745,2.706,7.14q1.209,2.905,2.627,5.82a.926.926,0,0,1,.046.1A104.811,104.811,0,0,0,66.957,627.7l.185.195a98.262,98.262,0,0,0,11.765,10.62c1.024.779,2.08,1.538,3.146,2.289,1.965,1.39,3.994,2.711,6.116,3.98q1.233.727,2.493,1.441a106.762,106.762,0,0,0,15.754,7.164l1.561.551c1.747.6,3.531,1.182,5.361,1.714q3.142.927,6.445,1.687c1.279.3,2.581.575,3.892.839,2.085.417,4.212.8,6.39,1.121a153.83,153.83,0,0,0,22.839,1.64H340.564c1.45,0,2.887,0,4.3-.056ZM132.054,571.286v45.956h0a73.767,73.767,0,0,1-17.608-5.885c-.565-.273-1.117-.556-1.663-.843-.751-.389-1.473-.8-2.187-1.2a59.2,59.2,0,0,1-16.681-14.253l-.2-.255A63.049,63.049,0,0,1,85.6,581.433c-.162-.352-.32-.709-.463-1.061-.769-1.779-1.423-3.512-1.983-5.162-.139-.412-.269-.815-.4-1.214-.607-1.918-1.089-3.707-1.464-5.333-.111-.463-.209-.927-.3-1.362q-.19-.876-.334-1.668c-.042-.241-.083-.463-.125-.7-.079-.463-.148-.885-.209-1.288-.088-.6-.158-1.14-.213-1.608-.093-.774-.144-1.353-.171-1.7s0-.737,0-1.094c.13-5.973,1.339-9.828,2.632-12.316.046-.088.093-.181.144-.269a14.167,14.167,0,0,1,1.473-2.215l.07-.088a15.518,15.518,0,0,1,1.214-1.284,16.68,16.68,0,0,1,2.442-1.918,26.512,26.512,0,0,1,8.549-3.42,87.778,87.778,0,0,0,14.281,17.459q2.609,2.419,5.361,4.518c.292.273.6.463.876.732.394.375.792.737,1.2,1.094,1.2,1.066,2.428,2.048,3.661,3.035,1.668,1.293,3.378,2.46,5.129,3.563.848.542,1.677,1.107,2.516,1.645a28.663,28.663,0,0,0,2.572,1.506Zm187.659,2.169v45.789H173.756v-45.83h0c1.816-.607,3.86-1.251,6.237-1.941l.792-.227.811-.232c2.192-.626,4.61-1.293,7.173-1.937.7-.19,1.427-.371,2.164-.551l.737-.181c.718-.176,1.45-.352,2.192-.524s1.5-.352,2.266-.524c1.149-.255,2.317-.51,3.535-.765l1.2-.25.278-.06,1.283-.283.232-.056,1.3-.246c3.433-.653,7.029-1.26,10.75-1.816.551-.083,1.117-.148,1.673-.222s1.163-.162,1.751-.236c3.294-.44,6.709-.811,10.194-1.126,1.353-.125,2.687-.25,4.045-.334,4.689-.334,9.466-.584,14.364-.584,2.419,0,4.814.065,7.191.167,1.58.07,3.151.162,4.712.264.778.051,1.562.1,2.317.153,1.39.083,2.711.208,4.068.334q5.194.463,10.134,1.126l2.131.278c.436.06.866.116,1.288.181,4.17.626,8.257,1.311,12.047,2.085.584.1,1.107.227,1.668.352l2.317.463q3.058.658,5.9,1.339l1.117.264.741.19,2.219.561c2.187.547,4.258,1.112,6.181,1.65l.825.227c.584.19,1.27.357,1.853.524l1.738.523,1.853.57c.968.3,1.853.593,2.725.867Z" transform="translate(0 -160.521)" fill="#ccd7ee"/>
    </g>
  </g>
</svg>
