<svg xmlns="http://www.w3.org/2000/svg" xmlns:xlink="http://www.w3.org/1999/xlink" width="500" height="500" viewBox="0 0 500 500">
  <defs>
    <clipPath id="clip-ic-driving1-web">
      <rect width="500" height="500"/>
    </clipPath>
  </defs>
  <g id="ic-driving1-web" clip-path="url(#clip-ic-driving1-web)">
    <rect width="500" height="500" fill="rgba(255,255,255,0)"/>
    <g id="icon_web-19" data-name="icon web-19" transform="translate(0.004)">
      <path id="Path_53" data-name="Path 53" d="M426.774,73.222A250,250,0,0,0,73.222,426.774,250,250,0,0,0,426.774,73.222ZM250,48.06c96.916,0,178.1,68.634,197.512,159.851a317.627,317.627,0,0,0-46.027-14.963l-.134-.028h0C359.331,182.406,306.891,176.184,250,176.184s-109.342,6.222-151.36,16.741h0l-.13.028A318.1,318.1,0,0,0,52.49,207.906C71.907,116.694,153.082,48.06,250,48.06ZM281.877,250A31.879,31.879,0,1,1,250,218.114,31.878,31.878,0,0,1,281.877,250ZM127.953,356.159h0c-1.514,16.2-7.324,30.528-16.569,40.541A201.436,201.436,0,0,1,48.305,259.757c14.477-3.574,29.764.579,43.078,10.342v-.028h0v.032c14.259,10.454,26.259,27.352,32.541,48.148a99.708,99.708,0,0,1,4.028,37.907ZM250,451.936a200.675,200.675,0,0,1-93.314-22.9h0s4.1-23.93,34.94-39.1h0a255.238,255.238,0,0,0,116.74,0h0c30.828,15.167,34.93,39.092,34.93,39.092h0a200.688,200.688,0,0,1-93.3,22.9Zm138.61-55.226h0c-9.259-10.014-15.055-24.342-16.569-40.541h0a99.646,99.646,0,0,1,4.023-37.893c6.282-20.833,18.278-37.7,32.541-48.148V270.1c13.315-9.755,28.6-13.889,43.055-10.324h0A201.212,201.212,0,0,1,388.608,396.71Z" fill="#2a4095"/>
      <path id="Path_54" data-name="Path 54" d="M75.907,692.892a250.458,250.458,0,0,0,282.836,49.745,215.279,215.279,0,0,0,2.62-33.467,213.3,213.3,0,0,0-85.615-171.036,31.879,31.879,0,0,1-54.083-29.463A213.887,213.887,0,0,0,5,550.227,248.043,248.043,0,0,0,75.907,692.892Zm83.462,2.264s4.1-23.93,34.94-39.1h0a255.24,255.24,0,0,0,116.74,0h0c30.828,15.167,34.93,39.092,34.93,39.092h0a201.587,201.587,0,0,1-186.628,0ZM94.055,536.19h0v.032c14.259,10.454,26.259,27.352,32.541,48.148a99.708,99.708,0,0,1,4.023,37.889h0c-1.514,16.2-7.324,30.527-16.569,40.541A201.435,201.435,0,0,1,50.972,525.856c14.477-3.574,29.764.579,43.078,10.343Z" transform="translate(-2.685 -266.118)" fill="#455daa"/>
    </g>
  </g>
</svg>
