<svg xmlns="http://www.w3.org/2000/svg" xmlns:xlink="http://www.w3.org/1999/xlink" width="500" height="500" viewBox="0 0 500 500">
  <defs>
    <clipPath id="clip-ic-friendly2-web">
      <rect width="500" height="500"/>
    </clipPath>
  </defs>
  <g id="ic-friendly2-web" clip-path="url(#clip-ic-friendly2-web)">
    <rect width="500" height="500" fill="rgba(255,255,255,0)"/>
    <g id="icon_web-20" data-name="icon web-20">
      <path id="Path_55" data-name="Path 55" d="M250,0C111.931,0,0,111.931,0,250S111.931,500,250,500,500,388.069,500,250,388.069,0,250,0ZM125,187.5a31.25,31.25,0,1,1,31.25,31.25A31.25,31.25,0,0,1,125,187.5ZM360.467,360.467a156.2,156.2,0,0,1-220.967,0,15.62,15.62,0,0,1,22.074-22.093c47.222,47.273,129.551,47.273,176.8,0a15.622,15.622,0,0,1,22.093,22.093ZM343.75,218.75A31.25,31.25,0,1,1,375,187.5,31.25,31.25,0,0,1,343.75,218.75Z" fill="#c1cce8"/>
      <path id="Path_56" data-name="Path 56" d="M256.181,790a248.982,248.982,0,0,0,112.565-26.727c.06-2.1.1-4.194.1-6.3a216.079,216.079,0,0,0-20.028-91.134,156.261,156.261,0,0,1-203.134-15.37,15.62,15.62,0,0,1,22.074-22.093c43.718,43.727,117.468,46.981,165.671,9.773A216.965,216.965,0,0,0,11.51,591.532C35.265,704.875,135.778,790,256.181,790Z" transform="translate(-6.181 -290)" fill="#ccd7ee"/>
    </g>
  </g>
</svg>
