<svg xmlns="http://www.w3.org/2000/svg" xmlns:xlink="http://www.w3.org/1999/xlink" width="500" height="500" viewBox="0 0 500 500">
  <defs>
    <clipPath id="clip-ic-navigation1-web">
      <rect width="500" height="500"/>
    </clipPath>
  </defs>
  <g id="ic-navigation1-web" clip-path="url(#clip-ic-navigation1-web)">
    <rect width="500" height="500" fill="rgba(255,255,255,0)"/>
    <g id="icon_web-17" data-name="icon web-17">
      <path id="Path_48" data-name="Path 48" d="M250,0C112.148,0,0,112.148,0,250S112.148,500,250,500,500,387.852,500,250,387.852,0,250,0ZM383.467,139.25,260.56,387.2a7.111,7.111,0,0,1-13.426-2.315L234.259,278.625,121.727,259.768a7.111,7.111,0,0,1-1.792-13.472l254.2-116.667a7.1,7.1,0,0,1,9.333,9.611Z" fill="#2a4095"/>
      <path id="Path_49" data-name="Path 49" d="M361.963,712.678q.093-3.426.093-6.861a259.348,259.348,0,0,0-59.023-165.1L260.56,626.4a7.111,7.111,0,0,1-13.426-2.315L234.259,517.821,121.727,498.965a7.111,7.111,0,0,1-1.792-13.472l60.731-27.87A261.352,261.352,0,0,0,1.13,465.516C.394,473.312,0,481.21,0,489.2c0,137.852,112.148,250,250,250a248.438,248.438,0,0,0,111.963-26.519Z" transform="translate(0 -239.196)" fill="#455daa"/>
    </g>
  </g>
</svg>
